<?xml version="1.0" standalone="no"?>
<svg xmlns="http://www.w3.org/2000/svg" viewBox="0 0 147 67" width="147" height="67"><g fill="#fea701" color="#fea701" transform="translate(51.225 0) scale(0.9166667) "><svg width="48.0" height="40.0" x="0.0" y="0.0" viewBox="0 0 48 40"><path fill="currentColor" fill-rule="evenodd" d="M41.576 0L12.872 28.703v-2.95L38.625 0h-4.1l-10.9 10.898L12.725 0h-4.1l12.949 12.95-1.476 1.474L5.675 0h-4.1l16.474 16.475-1.475 1.475L0 1.376V40h2.9V8.378l2.087 2.086V40h2.9V13.364l2.086 2.087V40h2.9v-.146l10.752-10.752L34.525 40h2.951V15.253l2.086-2.087V40h2.9V10.266l2.087-2.086V40h2.898V5.434h-.153l.153-.154V1.178L12.872 35.754v-2.95L45.675 0h-4.1zm-8.849 20l1.848-1.848v3.697L32.727 20zm-19.855-1.65L14.522 20l-1.65 1.65V18.35zm16.329 5.176l1.476-1.474 3.898 3.899v2.952l-5.374-5.377zm-3.526 3.526l1.475-1.476 7.425 7.426v2.95l-8.9-8.9z"></path></svg></g><path fill="#fe4e01" fill-rule="nonzero" d="M19.78 17.40L14.52 17.40L14.52 11.45Q14.52 10.34 14.60 9.18Q14.69 8.02 14.78 7.22Q14.88 6.43 14.90 6.22L14.90 6.22L14.81 6.22L11.76 17.40L7.61 17.40L4.54 6.24L4.44 6.24Q4.46 6.46 4.57 7.24Q4.68 8.02 4.78 9.18Q4.87 10.34 4.87 11.45L4.87 11.45L4.87 17.40L0 17.40L0 0.89L7.49 0.89L9.98 10.42L10.08 10.42L12.55 0.89L19.78 0.89L19.78 17.40ZM29.21 4.44Q32.69 4.44 34.52 6.07Q36.36 7.70 36.36 11.06L36.36 11.06L36.36 11.88L26.86 11.88Q26.86 13.25 27.47 13.94Q28.08 14.64 29.40 14.64L29.40 14.64Q30.60 14.64 31.16 14.14Q31.73 13.63 31.73 12.79L31.73 12.79L36.36 12.79Q36.36 15.10 34.61 16.39Q32.86 17.69 29.50 17.69L29.50 17.69Q25.97 17.69 24.02 16.04Q22.08 14.40 22.08 11.06L22.08 11.06Q22.08 7.80 23.98 6.12Q25.87 4.44 29.21 4.44L29.21 4.44ZM29.40 7.49Q27.14 7.49 26.88 9.62L26.88 9.62L31.54 9.62Q31.54 8.64 30.97 8.06Q30.41 7.49 29.40 7.49L29.40 7.49ZM44.42 4.73L47.11 4.73L47.11 7.97L44.42 7.97L44.42 12.79Q44.42 13.66 44.71 14.05Q45 14.45 45.77 14.45L45.77 14.45L47.11 14.45L47.11 17.26Q46.54 17.45 45.62 17.57Q44.71 17.69 44.04 17.69L44.04 17.69Q41.93 17.69 40.79 16.92Q39.65 16.15 39.65 14.30L39.65 14.30L39.65 7.97L37.87 7.97L37.87 4.73L39.84 4.73L40.87 0.89L44.42 0.89L44.42 4.73ZM55.58 4.44Q58.49 4.44 60.31 5.41Q62.14 6.38 62.14 8.57L62.14 8.57L62.14 13.51Q62.14 13.92 62.33 14.18Q62.52 14.45 62.90 14.45L62.90 14.45L63.77 14.45L63.77 17.21Q63.70 17.26 63.40 17.36Q63.10 17.47 62.54 17.58Q61.99 17.69 61.27 17.69L61.27 17.69Q59.88 17.69 58.98 17.27Q58.08 16.85 57.74 16.10L57.74 16.10Q56.83 16.82 55.70 17.26Q54.58 17.69 53.06 17.69L53.06 17.69Q48.60 17.69 48.60 14.14L48.60 14.14Q48.60 12.29 49.60 11.32Q50.59 10.34 52.46 9.98Q54.34 9.62 57.36 9.62L57.36 9.62L57.36 9.00Q57.36 8.26 56.84 7.87Q56.33 7.49 55.51 7.49L55.51 7.49Q54.77 7.49 54.23 7.75Q53.69 8.02 53.69 8.59L53.69 8.59L53.69 8.69L48.98 8.69Q48.96 8.57 48.96 8.35L48.96 8.35Q48.96 6.55 50.68 5.50Q52.39 4.44 55.58 4.44L55.58 4.44ZM57.36 11.88Q55.32 11.88 54.35 12.32Q53.38 12.77 53.38 13.51L53.38 13.51Q53.38 14.71 55.01 14.71L55.01 14.71Q55.94 14.71 56.65 14.21Q57.36 13.70 57.36 12.96L57.36 12.96L57.36 11.88ZM70.27 17.40L65.50 17.40L65.50 0L70.27 0L70.27 17.40ZM90.34 17.40L84.72 17.40L84.02 15.07L78.24 15.07L77.54 17.40L72.12 17.40L78.14 0.89L84.31 0.89L90.34 17.40ZM81.10 5.50L79.34 11.38L82.92 11.38L81.19 5.50L81.10 5.50ZM96.94 17.40L92.16 17.40L92.16 0L96.94 0L96.94 17.40ZM108.34 4.44Q110.90 4.44 112.30 6.12Q113.69 7.80 113.69 11.09L113.69 11.09Q113.69 14.35 112.30 16.02Q110.90 17.69 108.34 17.69L108.34 17.69Q106.13 17.69 104.78 16.25L104.78 16.25L104.78 22.13L100.01 22.13L100.01 4.73L103.90 4.73L104.30 6.53Q105.70 4.44 108.34 4.44L108.34 4.44ZM106.85 7.97Q105.79 7.97 105.26 8.71Q104.74 9.46 104.74 10.66L104.74 10.66L104.74 11.45Q104.74 12.65 105.26 13.40Q105.79 14.16 106.85 14.16L106.85 14.16Q108.91 14.16 108.91 11.69L108.91 11.69L108.91 10.42Q108.91 7.97 106.85 7.97L106.85 7.97ZM120.77 6.05Q121.54 5.28 122.57 4.86Q123.60 4.44 124.73 4.44L124.73 4.44Q126.94 4.44 128.04 5.66Q129.14 6.89 129.14 9.19L129.14 9.19L129.14 17.40L124.37 17.40L124.37 9.77Q124.37 8.95 123.95 8.46Q123.53 7.97 122.76 7.97L122.76 7.97Q121.87 7.97 121.32 8.54Q120.77 9.12 120.77 9.96L120.77 9.96L120.77 17.40L115.99 17.40L115.99 0L120.77 0L120.77 6.05ZM138.26 4.44Q141.17 4.44 142.99 5.41Q144.82 6.38 144.82 8.57L144.82 8.57L144.82 13.51Q144.82 13.92 145.01 14.18Q145.20 14.45 145.58 14.45L145.58 14.45L146.45 14.45L146.45 17.21Q146.38 17.26 146.08 17.36Q145.78 17.47 145.22 17.58Q144.67 17.69 143.95 17.69L143.95 17.69Q142.56 17.69 141.66 17.27Q140.76 16.85 140.42 16.10L140.42 16.10Q139.51 16.82 138.38 17.26Q137.26 17.69 135.74 17.69L135.74 17.69Q131.28 17.69 131.28 14.14L131.28 14.14Q131.28 12.29 132.28 11.32Q133.27 10.34 135.14 9.98Q137.02 9.62 140.04 9.62L140.04 9.62L140.04 9.00Q140.04 8.26 139.52 7.87Q139.01 7.49 138.19 7.49L138.19 7.49Q137.45 7.49 136.91 7.75Q136.37 8.02 136.37 8.59L136.37 8.59L136.37 8.69L131.66 8.69Q131.64 8.57 131.64 8.35L131.64 8.35Q131.64 6.55 133.36 5.50Q135.07 4.44 138.26 4.44L138.26 4.44ZM140.04 11.88Q138 11.88 137.03 12.32Q136.06 12.77 136.06 13.51L136.06 13.51Q136.06 14.71 137.69 14.71L137.69 14.71Q138.62 14.71 139.33 14.21Q140.04 13.70 140.04 12.96L140.04 12.96L140.04 11.88Z" transform="translate(0, 44.667)"></path></svg>